<svg xmlns="http://www.w3.org/2000/svg" id="Customer_service_" width="51.169" height="49.118" viewBox="0 0 51.169 49.118">
    <defs>
        <style>
            .cls-1{fill:#08c}
        </style>
    </defs>
    <g id="XMLID_386_">
        <path id="XMLID_389_" d="M51.071 37.185A20.172 20.172 0 0 0 35.385 19.5v-2.543a3.4 3.4 0 0 0-.82-6.7h-7.2a3.4 3.4 0 0 0-.82 6.7V19.5a20.068 20.068 0 0 0-9.842 5.414 20.285 20.285 0 0 0-1.7 1.926H7.812a1 1 0 1 0 0 2h5.838a20.035 20.035 0 0 0-1.773 3.841H1a1 1 0 0 0 0 2h10.312a20.32 20.32 0 0 0-.5 3.841H6.4a1 1 0 1 0 0 2h4.451a20.291 20.291 0 0 0 .624 3.841H5a1 1 0 1 0 0 2h7.11a20.185 20.185 0 0 0 16.876 12.92q.99.1 1.981.1a20.237 20.237 0 0 0 11.017-3.256 1 1 0 0 0-1.091-1.675 18.189 18.189 0 1 1 5.357-5.364 1 1 0 1 0 1.676 1.089 20.253 20.253 0 0 0 3.145-12.992zM25.97 13.66a1.4 1.4 0 0 1 1.4-1.4h7.2a1.4 1.4 0 1 1 0 2.8h-7.2a1.4 1.4 0 0 1-1.4-1.4zm2.578 5.5v-2.1h4.838v2.1a20.364 20.364 0 0 0-4.838 0z" class="cls-1" transform="translate(0 -10.262)"/>
        <path id="XMLID_391_" d="M436.769 425.5a1 1 0 1 0 .707.293 1 1 0 0 0-.707-.293z" class="cls-1" transform="translate(-392.218 -384)"/>
        <path id="XMLID_394_" d="M170.376 144.609a15.5 15.5 0 1 0 15.5 15.5 15.521 15.521 0 0 0-15.5-15.5zm0 29.009a13.505 13.505 0 1 1 13.505-13.505 13.52 13.52 0 0 1-13.505 13.505z" class="cls-1" transform="translate(-139.394 -131.182)"/>
        <path id="XMLID_397_" d="M268.652 219.7l-4.95 4.95a3.1 3.1 0 0 0-2.744 0l-2.215-2.215a1 1 0 0 0-1.413 1.413l2.215 2.215a3.106 3.106 0 1 0 5.571 0l4.8-4.8.145-.145a1 1 0 1 0-1.413-1.413zm-6.322 8.842a1.107 1.107 0 1 1 1.107-1.107 1.108 1.108 0 0 1-1.107 1.111z" class="cls-1" transform="translate(-231.348 -198.508)"/>
        <path id="XMLID_398_" d="M399.58 289.86h-.926a1 1 0 0 0 0 2h.926a1 1 0 1 0 0-2z" class="cls-1" transform="translate(-357.913 -261.917)"/>
        <path id="XMLID_399_" d="M195.007 289.616h-.926a1 1 0 1 0 0 2h.926a1 1 0 1 0 0-2z" class="cls-1" transform="translate(-173.785 -261.697)"/>
        <path id="XMLID_400_" d="M301.122 185.744a1 1 0 0 0 1-1v-.926a1 1 0 0 0-2 0v.926a1 1 0 0 0 1 1z" class="cls-1" transform="translate(-270.128 -165.573)"/>
        <path id="XMLID_424_" d="M300.878 387.393a1 1 0 0 0-1 1v.926a1 1 0 1 0 2 0v-.926a1 1 0 0 0-1-1z" class="cls-1" transform="translate(-269.909 -349.702)"/>
        <path id="XMLID_425_" d="M1 351.44a1 1 0 1 0 .706 1.706A1 1 0 0 0 1 351.44z" class="cls-1" transform="translate(0 -317.342)"/>
    </g>
</svg>
